<svg width="1034" height="459" viewBox="0 0 1034 459" fill="none" xmlns="http://www.w3.org/2000/svg">
<g filter="url(#filter0_d_71_5)">
<path d="M622.8 293.1C618.133 286.567 611.867 283.3 604 283.3C600.8 283.3 597.667 284.1 594.6 285.7C591.533 287.3 590 289.9 590 293.5C590 296.433 591.267 298.567 593.8 299.9C596.333 301.233 599.533 302.367 603.4 303.3C607.267 304.233 611.4 305.233 615.8 306.3C620.333 307.233 624.533 308.767 628.4 310.9C632.267 312.9 635.467 315.7 638 319.3C640.533 322.9 641.8 327.833 641.8 334.1C641.8 339.833 640.533 344.7 638 348.7C635.6 352.567 632.4 355.7 628.4 358.1C624.533 360.5 620.133 362.233 615.2 363.3C610.267 364.367 605.333 364.9 600.4 364.9C592.933 364.9 586.067 363.833 579.8 361.7C573.533 359.567 567.933 355.7 563 350.1L579 335.1C582.067 338.567 585.333 341.433 588.8 343.7C592.4 345.833 596.733 346.9 601.8 346.9C603.533 346.9 605.333 346.7 607.2 346.3C609.067 345.9 610.8 345.233 612.4 344.3C614 343.367 615.267 342.233 616.2 340.9C617.267 339.433 617.8 337.767 617.8 335.9C617.8 332.567 616.533 330.1 614 328.5C611.467 326.9 608.267 325.633 604.4 324.7C600.533 323.633 596.333 322.7 591.8 321.9C587.4 320.967 583.267 319.567 579.4 317.7C575.533 315.7 572.333 312.967 569.8 309.5C567.267 306.033 566 301.233 566 295.1C566 289.767 567.067 285.167 569.2 281.3C571.467 277.3 574.4 274.033 578 271.5C581.6 268.967 585.733 267.1 590.4 265.9C595.067 264.7 599.8 264.1 604.6 264.1C611 264.1 617.333 265.233 623.6 267.5C629.867 269.633 634.933 273.367 638.8 278.7L622.8 293.1ZM684.467 279.9H684.867C686.734 275.9 690.001 272.3 694.667 269.1C699.467 265.767 705.601 264.1 713.067 264.1C719.467 264.1 724.867 265.167 729.267 267.3C733.801 269.433 737.467 272.233 740.267 275.7C743.067 279.167 745.067 283.167 746.267 287.7C747.467 292.233 748.067 296.967 748.067 301.9V362.5H724.067V313.9C724.067 311.233 723.934 308.3 723.667 305.1C723.401 301.767 722.667 298.7 721.467 295.9C720.401 292.967 718.667 290.567 716.267 288.7C713.867 286.7 710.601 285.7 706.467 285.7C702.467 285.7 699.067 286.367 696.267 287.7C693.601 289.033 691.334 290.833 689.467 293.1C687.734 295.367 686.467 297.967 685.667 300.9C684.867 303.833 684.467 306.9 684.467 310.1V362.5H660.467V211.3H684.467V279.9ZM770.511 314.5C770.511 306.9 771.844 300.033 774.511 293.9C777.311 287.633 781.044 282.3 785.711 277.9C790.378 273.5 795.911 270.1 802.311 267.7C808.711 265.3 815.511 264.1 822.711 264.1C829.911 264.1 836.711 265.3 843.111 267.7C849.511 270.1 855.044 273.5 859.711 277.9C864.378 282.3 868.044 287.633 870.711 293.9C873.511 300.033 874.911 306.9 874.911 314.5C874.911 322.1 873.511 329.033 870.711 335.3C868.044 341.433 864.378 346.7 859.711 351.1C855.044 355.5 849.511 358.9 843.111 361.3C836.711 363.7 829.911 364.9 822.711 364.9C815.511 364.9 808.711 363.7 802.311 361.3C795.911 358.9 790.378 355.5 785.711 351.1C781.044 346.7 777.311 341.433 774.511 335.3C771.844 329.033 770.511 322.1 770.511 314.5ZM794.511 314.5C794.511 318.233 795.111 321.833 796.311 325.3C797.644 328.767 799.511 331.833 801.911 334.5C804.444 337.167 807.444 339.3 810.911 340.9C814.378 342.5 818.311 343.3 822.711 343.3C827.111 343.3 831.044 342.5 834.511 340.9C837.978 339.3 840.911 337.167 843.311 334.5C845.844 331.833 847.711 328.767 848.911 325.3C850.244 321.833 850.911 318.233 850.911 314.5C850.911 310.767 850.244 307.167 848.911 303.7C847.711 300.233 845.844 297.167 843.311 294.5C840.911 291.833 837.978 289.7 834.511 288.1C831.044 286.5 827.111 285.7 822.711 285.7C818.311 285.7 814.378 286.5 810.911 288.1C807.444 289.7 804.444 291.833 801.911 294.5C799.511 297.167 797.644 300.233 796.311 303.7C795.111 307.167 794.511 310.767 794.511 314.5ZM897.381 266.5H920.181V280.9H920.581C924.048 275.033 928.715 270.767 934.581 268.1C940.448 265.433 946.781 264.1 953.581 264.1C960.915 264.1 967.515 265.433 973.381 268.1C979.248 270.633 984.248 274.167 988.381 278.7C992.515 283.233 995.648 288.567 997.781 294.7C999.915 300.833 1000.98 307.433 1000.98 314.5C1000.98 321.567 999.848 328.167 997.581 334.3C995.315 340.433 992.115 345.767 987.981 350.3C983.981 354.833 979.115 358.433 973.381 361.1C967.648 363.633 961.381 364.9 954.581 364.9C950.048 364.9 946.048 364.433 942.581 363.5C939.115 362.567 936.048 361.367 933.381 359.9C930.715 358.433 928.448 356.9 926.581 355.3C924.715 353.567 923.181 351.9 921.981 350.3H921.381V408.1H897.381V266.5ZM976.981 314.5C976.981 310.767 976.315 307.167 974.981 303.7C973.781 300.233 971.915 297.167 969.381 294.5C966.981 291.833 964.048 289.7 960.581 288.1C957.115 286.5 953.181 285.7 948.781 285.7C944.381 285.7 940.448 286.5 936.981 288.1C933.515 289.7 930.515 291.833 927.981 294.5C925.581 297.167 923.715 300.233 922.381 303.7C921.181 307.167 920.581 310.767 920.581 314.5C920.581 318.233 921.181 321.833 922.381 325.3C923.715 328.767 925.581 331.833 927.981 334.5C930.515 337.167 933.515 339.3 936.981 340.9C940.448 342.5 944.381 343.3 948.781 343.3C953.181 343.3 957.115 342.5 960.581 340.9C964.048 339.3 966.981 337.167 969.381 334.5C971.915 331.833 973.781 328.767 974.981 325.3C976.315 321.833 976.981 318.233 976.981 314.5Z" fill="black"/>
</g>
<g filter="url(#filter1_d_71_5)">
<path d="M349 266.5H373V362.5H349V266.5ZM345.6 233.9C345.6 230.033 347 226.7 349.8 223.9C352.733 220.967 356.4 219.5 360.8 219.5C365.2 219.5 368.867 220.9 371.8 223.7C374.867 226.367 376.4 229.767 376.4 233.9C376.4 238.033 374.867 241.5 371.8 244.3C368.867 246.967 365.2 248.3 360.8 248.3C356.4 248.3 352.733 246.9 349.8 244.1C347 241.167 345.6 237.767 345.6 233.9ZM400.553 266.5H423.353V281.9H423.753C426.02 277.1 429.486 272.967 434.153 269.5C438.82 265.9 445.153 264.1 453.153 264.1C459.553 264.1 464.953 265.167 469.353 267.3C473.886 269.433 477.553 272.233 480.353 275.7C483.153 279.167 485.153 283.167 486.353 287.7C487.553 292.233 488.153 296.967 488.153 301.9V362.5H464.153V313.9C464.153 311.233 464.02 308.3 463.753 305.1C463.486 301.767 462.753 298.7 461.553 295.9C460.486 292.967 458.753 290.567 456.353 288.7C453.953 286.7 450.686 285.7 446.553 285.7C442.553 285.7 439.153 286.367 436.353 287.7C433.686 289.033 431.42 290.833 429.553 293.1C427.82 295.367 426.553 297.967 425.753 300.9C424.953 303.833 424.553 306.9 424.553 310.1V362.5H400.553V266.5ZM515.797 266.5H539.797V362.5H515.797V266.5ZM512.397 233.9C512.397 230.033 513.797 226.7 516.597 223.9C519.53 220.967 523.197 219.5 527.597 219.5C531.997 219.5 535.664 220.9 538.597 223.7C541.664 226.367 543.197 229.767 543.197 233.9C543.197 238.033 541.664 241.5 538.597 244.3C535.664 246.967 531.997 248.3 527.597 248.3C523.197 248.3 519.53 246.9 516.597 244.1C513.797 241.167 512.397 237.767 512.397 233.9Z" fill="url(#paint0_linear_71_5)"/>
</g>
<g filter="url(#filter2_d_71_5)">
<path d="M266 105.5C266 92.8931 263.388 80.4096 258.312 68.7624C253.236 57.1151 245.797 46.5322 236.418 37.6177C227.039 28.7033 215.905 21.632 203.651 16.8076C191.397 11.9831 178.264 9.5 165 9.5C151.736 9.5 138.603 11.9831 126.349 16.8076C114.095 21.632 102.961 28.7033 93.5822 37.6178C84.2035 46.5322 76.7639 57.1151 71.6882 68.7624C66.6124 80.4097 64 92.8931 64 105.5" stroke="url(#paint1_linear_71_5)" stroke-width="19"/>
</g>
<g filter="url(#filter3_d_71_5)">
<rect x="4" y="105.5" width="321" height="345" rx="34" fill="url(#paint2_linear_71_5)"/>
</g>
<g filter="url(#filter4_d_71_5)">
<path d="M94 357.167V206.809C94 198.109 105.926 195.661 109.353 203.657L157.647 316.343C160.417 322.807 169.583 322.807 172.353 316.343L220.647 203.657C224.074 195.661 236 198.109 236 206.809V357.167" stroke="url(#paint3_linear_71_5)" stroke-width="44" stroke-linecap="round" stroke-linejoin="round"/>
</g>
<g filter="url(#filter5_d_71_5)">
<g filter="url(#filter6_i_71_5)">
<path d="M277.328 361.668C277.73 360.58 279.27 360.58 279.672 361.668L281.677 367.085C281.803 367.427 282.073 367.697 282.415 367.823L287.832 369.828C288.92 370.23 288.92 371.77 287.832 372.172L282.415 374.177C282.073 374.303 281.803 374.573 281.677 374.915L279.672 380.332C279.27 381.42 277.73 381.42 277.328 380.332L275.323 374.915C275.197 374.573 274.927 374.303 274.585 374.177L269.168 372.172C268.08 371.77 268.08 370.23 269.168 369.828L274.585 367.823C274.927 367.697 275.197 367.427 275.323 367.085L277.328 361.668Z" fill="white"/>
</g>
<g filter="url(#filter7_i_71_5)">
<path d="M299.835 369.49C300.249 368.429 301.751 368.429 302.165 369.49L303.492 372.899C303.625 373.239 303.899 373.504 304.243 373.625L307.645 374.821C308.759 375.212 308.759 376.788 307.645 377.179L304.243 378.375C303.899 378.496 303.625 378.761 303.492 379.101L302.165 382.51C301.751 383.571 300.249 383.571 299.835 382.51L298.508 379.101C298.375 378.761 298.101 378.496 297.757 378.375L294.355 377.179C293.241 376.788 293.241 375.212 294.355 374.821L297.757 373.625C298.101 373.504 298.375 373.239 298.508 372.899L299.835 369.49Z" fill="white"/>
</g>
<g filter="url(#filter8_i_71_5)">
<path d="M286.337 388.459C286.752 387.402 288.248 387.402 288.663 388.459L289.586 390.805C289.719 391.144 289.994 391.408 290.338 391.528L292.61 392.32C293.729 392.709 293.729 394.291 292.61 394.68L290.338 395.472C289.994 395.592 289.719 395.856 289.586 396.195L288.663 398.541C288.248 399.598 286.752 399.598 286.337 398.541L285.414 396.195C285.281 395.856 285.006 395.592 284.662 395.472L282.39 394.68C281.271 394.291 281.271 392.709 282.39 392.32L284.662 391.528C285.006 391.408 285.281 391.144 285.414 390.805L286.337 388.459Z" fill="white"/>
</g>
</g>
<defs>
<filter id="filter0_d_71_5" x="559" y="211.3" width="445.981" height="204.8" filterUnits="userSpaceOnUse" color-interpolation-filters="sRGB">
<feFlood flood-opacity="0" result="BackgroundImageFix"/>
<feColorMatrix in="SourceAlpha" type="matrix" values="0 0 0 0 0 0 0 0 0 0 0 0 0 0 0 0 0 0 127 0" result="hardAlpha"/>
<feOffset dy="4"/>
<feGaussianBlur stdDeviation="2"/>
<feComposite in2="hardAlpha" operator="out"/>
<feColorMatrix type="matrix" values="0 0 0 0 0 0 0 0 0 0 0 0 0 0 0 0 0 0 0.25 0"/>
<feBlend mode="normal" in2="BackgroundImageFix" result="effect1_dropShadow_71_5"/>
<feBlend mode="normal" in="SourceGraphic" in2="effect1_dropShadow_71_5" result="shape"/>
</filter>
<filter id="filter1_d_71_5" x="341.6" y="219.5" width="205.597" height="151" filterUnits="userSpaceOnUse" color-interpolation-filters="sRGB">
<feFlood flood-opacity="0" result="BackgroundImageFix"/>
<feColorMatrix in="SourceAlpha" type="matrix" values="0 0 0 0 0 0 0 0 0 0 0 0 0 0 0 0 0 0 127 0" result="hardAlpha"/>
<feOffset dy="4"/>
<feGaussianBlur stdDeviation="2"/>
<feComposite in2="hardAlpha" operator="out"/>
<feColorMatrix type="matrix" values="0 0 0 0 0 0 0 0 0 0 0 0 0 0 0 0 0 0 0.25 0"/>
<feBlend mode="normal" in2="BackgroundImageFix" result="effect1_dropShadow_71_5"/>
<feBlend mode="normal" in="SourceGraphic" in2="effect1_dropShadow_71_5" result="shape"/>
</filter>
<filter id="filter2_d_71_5" x="50.5" y="0" width="229" height="113.5" filterUnits="userSpaceOnUse" color-interpolation-filters="sRGB">
<feFlood flood-opacity="0" result="BackgroundImageFix"/>
<feColorMatrix in="SourceAlpha" type="matrix" values="0 0 0 0 0 0 0 0 0 0 0 0 0 0 0 0 0 0 127 0" result="hardAlpha"/>
<feOffset dy="4"/>
<feGaussianBlur stdDeviation="2"/>
<feComposite in2="hardAlpha" operator="out"/>
<feColorMatrix type="matrix" values="0 0 0 0 0 0 0 0 0 0 0 0 0 0 0 0 0 0 0.25 0"/>
<feBlend mode="normal" in2="BackgroundImageFix" result="effect1_dropShadow_71_5"/>
<feBlend mode="normal" in="SourceGraphic" in2="effect1_dropShadow_71_5" result="shape"/>
</filter>
<filter id="filter3_d_71_5" x="0" y="105.5" width="329" height="353" filterUnits="userSpaceOnUse" color-interpolation-filters="sRGB">
<feFlood flood-opacity="0" result="BackgroundImageFix"/>
<feColorMatrix in="SourceAlpha" type="matrix" values="0 0 0 0 0 0 0 0 0 0 0 0 0 0 0 0 0 0 127 0" result="hardAlpha"/>
<feOffset dy="4"/>
<feGaussianBlur stdDeviation="2"/>
<feComposite in2="hardAlpha" operator="out"/>
<feColorMatrix type="matrix" values="0 0 0 0 0 0 0 0 0 0 0 0 0 0 0 0 0 0 0.25 0"/>
<feBlend mode="normal" in2="BackgroundImageFix" result="effect1_dropShadow_71_5"/>
<feBlend mode="normal" in="SourceGraphic" in2="effect1_dropShadow_71_5" result="shape"/>
</filter>
<filter id="filter4_d_71_5" x="19" y="120.5" width="292" height="292" filterUnits="userSpaceOnUse" color-interpolation-filters="sRGB">
<feFlood flood-opacity="0" result="BackgroundImageFix"/>
<feColorMatrix in="SourceAlpha" type="matrix" values="0 0 0 0 0 0 0 0 0 0 0 0 0 0 0 0 0 0 127 0" result="hardAlpha"/>
<feOffset dy="4"/>
<feGaussianBlur stdDeviation="2"/>
<feComposite in2="hardAlpha" operator="out"/>
<feColorMatrix type="matrix" values="0 0 0 0 0 0 0 0 0 0 0 0 0 0 0 0 0 0 0.25 0"/>
<feBlend mode="normal" in2="BackgroundImageFix" result="effect1_dropShadow_71_5"/>
<feBlend mode="normal" in="SourceGraphic" in2="effect1_dropShadow_71_5" result="shape"/>
</filter>
<filter id="filter5_d_71_5" x="264.352" y="360.852" width="48.1289" height="46.4818" filterUnits="userSpaceOnUse" color-interpolation-filters="sRGB">
<feFlood flood-opacity="0" result="BackgroundImageFix"/>
<feColorMatrix in="SourceAlpha" type="matrix" values="0 0 0 0 0 0 0 0 0 0 0 0 0 0 0 0 0 0 127 0" result="hardAlpha"/>
<feOffset dy="4"/>
<feGaussianBlur stdDeviation="2"/>
<feComposite in2="hardAlpha" operator="out"/>
<feColorMatrix type="matrix" values="0 0 0 0 0 0 0 0 0 0 0 0 0 0 0 0 0 0 0.25 0"/>
<feBlend mode="normal" in2="BackgroundImageFix" result="effect1_dropShadow_71_5"/>
<feBlend mode="normal" in="SourceGraphic" in2="effect1_dropShadow_71_5" result="shape"/>
</filter>
<filter id="filter6_i_71_5" x="268.352" y="360.852" width="20.2961" height="36.2961" filterUnits="userSpaceOnUse" color-interpolation-filters="sRGB">
<feFlood flood-opacity="0" result="BackgroundImageFix"/>
<feBlend mode="normal" in="SourceGraphic" in2="BackgroundImageFix" result="shape"/>
<feColorMatrix in="SourceAlpha" type="matrix" values="0 0 0 0 0 0 0 0 0 0 0 0 0 0 0 0 0 0 127 0" result="hardAlpha"/>
<feMorphology radius="4" operator="dilate" in="SourceAlpha" result="effect1_innerShadow_71_5"/>
<feOffset dy="16"/>
<feGaussianBlur stdDeviation="16"/>
<feComposite in2="hardAlpha" operator="arithmetic" k2="-1" k3="1"/>
<feColorMatrix type="matrix" values="0 0 0 0 0.0470588 0 0 0 0 0.0470588 0 0 0 0 0.0509804 0 0 0 0.1 0"/>
<feBlend mode="normal" in2="shape" result="effect1_innerShadow_71_5"/>
</filter>
<filter id="filter7_i_71_5" x="293.519" y="368.694" width="14.9616" height="30.612" filterUnits="userSpaceOnUse" color-interpolation-filters="sRGB">
<feFlood flood-opacity="0" result="BackgroundImageFix"/>
<feBlend mode="normal" in="SourceGraphic" in2="BackgroundImageFix" result="shape"/>
<feColorMatrix in="SourceAlpha" type="matrix" values="0 0 0 0 0 0 0 0 0 0 0 0 0 0 0 0 0 0 127 0" result="hardAlpha"/>
<feMorphology radius="4" operator="dilate" in="SourceAlpha" result="effect1_innerShadow_71_5"/>
<feOffset dy="16"/>
<feGaussianBlur stdDeviation="16"/>
<feComposite in2="hardAlpha" operator="arithmetic" k2="-1" k3="1"/>
<feColorMatrix type="matrix" values="0 0 0 0 0.0470588 0 0 0 0 0.0470588 0 0 0 0 0.0509804 0 0 0 0.1 0"/>
<feBlend mode="normal" in2="shape" result="effect1_innerShadow_71_5"/>
</filter>
<filter id="filter8_i_71_5" x="281.551" y="387.666" width="11.8987" height="27.6675" filterUnits="userSpaceOnUse" color-interpolation-filters="sRGB">
<feFlood flood-opacity="0" result="BackgroundImageFix"/>
<feBlend mode="normal" in="SourceGraphic" in2="BackgroundImageFix" result="shape"/>
<feColorMatrix in="SourceAlpha" type="matrix" values="0 0 0 0 0 0 0 0 0 0 0 0 0 0 0 0 0 0 127 0" result="hardAlpha"/>
<feMorphology radius="4" operator="dilate" in="SourceAlpha" result="effect1_innerShadow_71_5"/>
<feOffset dy="16"/>
<feGaussianBlur stdDeviation="16"/>
<feComposite in2="hardAlpha" operator="arithmetic" k2="-1" k3="1"/>
<feColorMatrix type="matrix" values="0 0 0 0 0.0470588 0 0 0 0 0.0470588 0 0 0 0 0.0509804 0 0 0 0.1 0"/>
<feBlend mode="normal" in2="shape" result="effect1_innerShadow_71_5"/>
</filter>
<linearGradient id="paint0_linear_71_5" x1="458" y1="413.5" x2="458" y2="184.5" gradientUnits="userSpaceOnUse">
<stop offset="0.279853" stop-color="#EAD266"/>
<stop offset="1" stop-color="#5F8F3B"/>
</linearGradient>
<linearGradient id="paint1_linear_71_5" x1="165" y1="9.5" x2="165" y2="201.5" gradientUnits="userSpaceOnUse">
<stop stop-color="#EAD266"/>
<stop offset="1" stop-color="#77A24B"/>
</linearGradient>
<linearGradient id="paint2_linear_71_5" x1="164.5" y1="105.5" x2="164.5" y2="450.5" gradientUnits="userSpaceOnUse">
<stop stop-color="#667EEA"/>
<stop offset="1" stop-color="#764BA2"/>
</linearGradient>
<linearGradient id="paint3_linear_71_5" x1="165" y1="167.833" x2="165" y2="357.167" gradientUnits="userSpaceOnUse">
<stop stop-color="#77A24B"/>
<stop offset="1" stop-color="#EAD266"/>
</linearGradient>
</defs>
</svg>
