<svg width="329" height="459" viewBox="0 0 329 459" fill="none" xmlns="http://www.w3.org/2000/svg">
<g filter="url(#filter0_d_63_25)">
<path d="M266 105.5C266 92.8931 263.388 80.4096 258.312 68.7624C253.236 57.1151 245.797 46.5322 236.418 37.6177C227.039 28.7033 215.905 21.632 203.651 16.8076C191.397 11.9831 178.264 9.5 165 9.5C151.736 9.5 138.603 11.9831 126.349 16.8076C114.095 21.632 102.961 28.7033 93.5822 37.6178C84.2035 46.5322 76.7639 57.1151 71.6882 68.7624C66.6124 80.4097 64 92.8931 64 105.5" stroke="url(#paint0_linear_63_25)" stroke-width="19"/>
</g>
<g filter="url(#filter1_d_63_25)">
<rect x="4" y="105.5" width="321" height="345" rx="34" fill="url(#paint1_linear_63_25)"/>
</g>
<g filter="url(#filter2_d_63_25)">
<path d="M94 357.167V206.809C94 198.109 105.926 195.661 109.353 203.657L157.647 316.343C160.417 322.807 169.583 322.807 172.353 316.343L220.647 203.657C224.074 195.661 236 198.109 236 206.809V357.167" stroke="url(#paint2_linear_63_25)" stroke-width="44" stroke-linecap="round" stroke-linejoin="round"/>
</g>
<g filter="url(#filter3_d_63_25)">
<g filter="url(#filter4_i_63_25)">
<path d="M277.328 361.668C277.73 360.58 279.27 360.58 279.672 361.668L281.677 367.085C281.803 367.427 282.073 367.697 282.415 367.823L287.832 369.828C288.92 370.23 288.92 371.77 287.832 372.172L282.415 374.177C282.073 374.303 281.803 374.573 281.677 374.915L279.672 380.332C279.27 381.42 277.73 381.42 277.328 380.332L275.323 374.915C275.197 374.573 274.927 374.303 274.585 374.177L269.168 372.172C268.08 371.77 268.08 370.23 269.168 369.828L274.585 367.823C274.927 367.697 275.197 367.427 275.323 367.085L277.328 361.668Z" fill="white"/>
</g>
<g filter="url(#filter5_i_63_25)">
<path d="M299.835 369.49C300.249 368.429 301.751 368.429 302.165 369.49L303.492 372.899C303.625 373.239 303.899 373.504 304.243 373.625L307.645 374.821C308.759 375.212 308.759 376.788 307.645 377.179L304.243 378.375C303.899 378.496 303.625 378.761 303.492 379.101L302.165 382.51C301.751 383.571 300.249 383.571 299.835 382.51L298.508 379.101C298.375 378.761 298.101 378.496 297.757 378.375L294.355 377.179C293.241 376.788 293.241 375.212 294.355 374.821L297.757 373.625C298.101 373.504 298.375 373.239 298.508 372.899L299.835 369.49Z" fill="white"/>
</g>
<g filter="url(#filter6_i_63_25)">
<path d="M286.337 388.459C286.752 387.402 288.248 387.402 288.663 388.459L289.586 390.805C289.719 391.144 289.994 391.408 290.338 391.528L292.61 392.32C293.729 392.709 293.729 394.291 292.61 394.68L290.338 395.472C289.994 395.592 289.719 395.856 289.586 396.195L288.663 398.541C288.248 399.598 286.752 399.598 286.337 398.541L285.414 396.195C285.281 395.856 285.006 395.592 284.662 395.472L282.39 394.68C281.271 394.291 281.271 392.709 282.39 392.32L284.662 391.528C285.006 391.408 285.281 391.144 285.414 390.805L286.337 388.459Z" fill="white"/>
</g>
</g>
<defs>
<filter id="filter0_d_63_25" x="50.5" y="0" width="229" height="113.5" filterUnits="userSpaceOnUse" color-interpolation-filters="sRGB">
<feFlood flood-opacity="0" result="BackgroundImageFix"/>
<feColorMatrix in="SourceAlpha" type="matrix" values="0 0 0 0 0 0 0 0 0 0 0 0 0 0 0 0 0 0 127 0" result="hardAlpha"/>
<feOffset dy="4"/>
<feGaussianBlur stdDeviation="2"/>
<feComposite in2="hardAlpha" operator="out"/>
<feColorMatrix type="matrix" values="0 0 0 0 0 0 0 0 0 0 0 0 0 0 0 0 0 0 0.25 0"/>
<feBlend mode="normal" in2="BackgroundImageFix" result="effect1_dropShadow_63_25"/>
<feBlend mode="normal" in="SourceGraphic" in2="effect1_dropShadow_63_25" result="shape"/>
</filter>
<filter id="filter1_d_63_25" x="0" y="105.5" width="329" height="353" filterUnits="userSpaceOnUse" color-interpolation-filters="sRGB">
<feFlood flood-opacity="0" result="BackgroundImageFix"/>
<feColorMatrix in="SourceAlpha" type="matrix" values="0 0 0 0 0 0 0 0 0 0 0 0 0 0 0 0 0 0 127 0" result="hardAlpha"/>
<feOffset dy="4"/>
<feGaussianBlur stdDeviation="2"/>
<feComposite in2="hardAlpha" operator="out"/>
<feColorMatrix type="matrix" values="0 0 0 0 0 0 0 0 0 0 0 0 0 0 0 0 0 0 0.25 0"/>
<feBlend mode="normal" in2="BackgroundImageFix" result="effect1_dropShadow_63_25"/>
<feBlend mode="normal" in="SourceGraphic" in2="effect1_dropShadow_63_25" result="shape"/>
</filter>
<filter id="filter2_d_63_25" x="19" y="120.5" width="292" height="292" filterUnits="userSpaceOnUse" color-interpolation-filters="sRGB">
<feFlood flood-opacity="0" result="BackgroundImageFix"/>
<feColorMatrix in="SourceAlpha" type="matrix" values="0 0 0 0 0 0 0 0 0 0 0 0 0 0 0 0 0 0 127 0" result="hardAlpha"/>
<feOffset dy="4"/>
<feGaussianBlur stdDeviation="2"/>
<feComposite in2="hardAlpha" operator="out"/>
<feColorMatrix type="matrix" values="0 0 0 0 0 0 0 0 0 0 0 0 0 0 0 0 0 0 0.25 0"/>
<feBlend mode="normal" in2="BackgroundImageFix" result="effect1_dropShadow_63_25"/>
<feBlend mode="normal" in="SourceGraphic" in2="effect1_dropShadow_63_25" result="shape"/>
</filter>
<filter id="filter3_d_63_25" x="264.352" y="360.852" width="48.1289" height="46.4818" filterUnits="userSpaceOnUse" color-interpolation-filters="sRGB">
<feFlood flood-opacity="0" result="BackgroundImageFix"/>
<feColorMatrix in="SourceAlpha" type="matrix" values="0 0 0 0 0 0 0 0 0 0 0 0 0 0 0 0 0 0 127 0" result="hardAlpha"/>
<feOffset dy="4"/>
<feGaussianBlur stdDeviation="2"/>
<feComposite in2="hardAlpha" operator="out"/>
<feColorMatrix type="matrix" values="0 0 0 0 0 0 0 0 0 0 0 0 0 0 0 0 0 0 0.25 0"/>
<feBlend mode="normal" in2="BackgroundImageFix" result="effect1_dropShadow_63_25"/>
<feBlend mode="normal" in="SourceGraphic" in2="effect1_dropShadow_63_25" result="shape"/>
</filter>
<filter id="filter4_i_63_25" x="268.352" y="360.852" width="20.2961" height="36.2961" filterUnits="userSpaceOnUse" color-interpolation-filters="sRGB">
<feFlood flood-opacity="0" result="BackgroundImageFix"/>
<feBlend mode="normal" in="SourceGraphic" in2="BackgroundImageFix" result="shape"/>
<feColorMatrix in="SourceAlpha" type="matrix" values="0 0 0 0 0 0 0 0 0 0 0 0 0 0 0 0 0 0 127 0" result="hardAlpha"/>
<feMorphology radius="4" operator="dilate" in="SourceAlpha" result="effect1_innerShadow_63_25"/>
<feOffset dy="16"/>
<feGaussianBlur stdDeviation="16"/>
<feComposite in2="hardAlpha" operator="arithmetic" k2="-1" k3="1"/>
<feColorMatrix type="matrix" values="0 0 0 0 0.0470588 0 0 0 0 0.0470588 0 0 0 0 0.0509804 0 0 0 0.1 0"/>
<feBlend mode="normal" in2="shape" result="effect1_innerShadow_63_25"/>
</filter>
<filter id="filter5_i_63_25" x="293.519" y="368.694" width="14.9616" height="30.612" filterUnits="userSpaceOnUse" color-interpolation-filters="sRGB">
<feFlood flood-opacity="0" result="BackgroundImageFix"/>
<feBlend mode="normal" in="SourceGraphic" in2="BackgroundImageFix" result="shape"/>
<feColorMatrix in="SourceAlpha" type="matrix" values="0 0 0 0 0 0 0 0 0 0 0 0 0 0 0 0 0 0 127 0" result="hardAlpha"/>
<feMorphology radius="4" operator="dilate" in="SourceAlpha" result="effect1_innerShadow_63_25"/>
<feOffset dy="16"/>
<feGaussianBlur stdDeviation="16"/>
<feComposite in2="hardAlpha" operator="arithmetic" k2="-1" k3="1"/>
<feColorMatrix type="matrix" values="0 0 0 0 0.0470588 0 0 0 0 0.0470588 0 0 0 0 0.0509804 0 0 0 0.1 0"/>
<feBlend mode="normal" in2="shape" result="effect1_innerShadow_63_25"/>
</filter>
<filter id="filter6_i_63_25" x="281.551" y="387.666" width="11.8987" height="27.6675" filterUnits="userSpaceOnUse" color-interpolation-filters="sRGB">
<feFlood flood-opacity="0" result="BackgroundImageFix"/>
<feBlend mode="normal" in="SourceGraphic" in2="BackgroundImageFix" result="shape"/>
<feColorMatrix in="SourceAlpha" type="matrix" values="0 0 0 0 0 0 0 0 0 0 0 0 0 0 0 0 0 0 127 0" result="hardAlpha"/>
<feMorphology radius="4" operator="dilate" in="SourceAlpha" result="effect1_innerShadow_63_25"/>
<feOffset dy="16"/>
<feGaussianBlur stdDeviation="16"/>
<feComposite in2="hardAlpha" operator="arithmetic" k2="-1" k3="1"/>
<feColorMatrix type="matrix" values="0 0 0 0 0.0470588 0 0 0 0 0.0470588 0 0 0 0 0.0509804 0 0 0 0.1 0"/>
<feBlend mode="normal" in2="shape" result="effect1_innerShadow_63_25"/>
</filter>
<linearGradient id="paint0_linear_63_25" x1="165" y1="9.5" x2="165" y2="201.5" gradientUnits="userSpaceOnUse">
<stop stop-color="#EAD266"/>
<stop offset="1" stop-color="#77A24B"/>
</linearGradient>
<linearGradient id="paint1_linear_63_25" x1="164.5" y1="105.5" x2="164.5" y2="450.5" gradientUnits="userSpaceOnUse">
<stop stop-color="#667EEA"/>
<stop offset="1" stop-color="#764BA2"/>
</linearGradient>
<linearGradient id="paint2_linear_63_25" x1="165" y1="167.833" x2="165" y2="357.167" gradientUnits="userSpaceOnUse">
<stop stop-color="#77A24B"/>
<stop offset="1" stop-color="#EAD266"/>
</linearGradient>
</defs>
</svg>
